<svg width="24" height="24" viewBox="0 0 24 24" fill="none" xmlns="http://www.w3.org/2000/svg">
<path d="M20.2875 9.91125C19.56 9.49781 18.6511 9.80437 18.2574 10.5525L16.3177 14.5092C16.2813 14.5841 16.2179 14.6424 16.1402 14.6723C16.0624 14.7021 15.9763 14.7013 15.8991 14.67C15.838 14.6457 15.7856 14.6035 15.7487 14.549C15.7119 14.4945 15.6922 14.4302 15.6924 14.3644V3.375C15.6924 2.72297 15.09 2.25 14.4375 2.25C13.785 2.25 13.2188 2.72297 13.2188 3.375V10.7175C13.2204 10.8546 13.1684 10.987 13.074 11.0864C12.9795 11.1858 12.85 11.2445 12.713 11.25C12.6445 11.2513 12.5764 11.2389 12.5127 11.2136C12.449 11.1883 12.391 11.1505 12.342 11.1025C12.2931 11.0545 12.2542 10.9972 12.2277 10.934C12.2012 10.8708 12.1875 10.8029 12.1875 10.7344V1.125C12.1875 0.472969 11.6747 0 11.0222 0C10.3697 0 9.84379 0.472969 9.84379 1.125V10.7175C9.84537 10.8546 9.79341 10.987 9.69897 11.0864C9.60453 11.1858 9.47504 11.2445 9.33801 11.25C9.26948 11.2513 9.20137 11.2389 9.13767 11.2136C9.07397 11.1883 9.01596 11.1505 8.96703 11.1025C8.9181 11.0545 8.87924 10.9972 8.85271 10.934C8.82619 10.8708 8.81253 10.8029 8.81254 10.7344V2.625C8.81254 1.97297 8.24629 1.5 7.59379 1.5C6.94129 1.5 6.37504 2.01984 6.37504 2.67188V11.4675C6.37662 11.6046 6.32466 11.737 6.23022 11.8364C6.13578 11.9358 6.00629 11.9945 5.86926 12C5.80073 12.0013 5.73262 11.9889 5.66892 11.9636C5.60522 11.9383 5.54721 11.9005 5.49828 11.8525C5.44935 11.8045 5.41049 11.7472 5.38396 11.684C5.35744 11.6208 5.34378 11.5529 5.34379 11.4844V5.625C5.34379 4.97297 4.82442 4.5 4.17192 4.5C3.51942 4.5 2.99442 4.97906 3.00004 5.625V15.75C3.00004 21.2536 6.37504 24 10.5 24H11.25C15.375 24 16.6739 22.1437 17.625 19.875L20.8458 11.9531C21.1561 11.1094 21.0146 10.3242 20.2875 9.91125Z" fill="#EC3535"/>
</svg>
