<svg width="15" height="14" viewBox="0 0 15 14" fill="none" xmlns="http://www.w3.org/2000/svg">
<path d="M10.9137 5.65832L7.41372 9.15832C7.29706 9.27499 7.18039 9.33332 7.00539 9.33332C6.83039 9.33332 6.71373 9.27499 6.59706 9.15832L3.09706 5.65832C2.86372 5.42499 2.86372 5.07499 3.09706 4.84166C3.33039 4.60832 3.68039 4.60832 3.91372 4.84166L7.00539 7.93332L10.0971 4.84166C10.3304 4.60832 10.6804 4.60832 10.9137 4.84166C11.1471 5.07499 11.1471 5.42499 10.9137 5.65832Z" fill="white"/>
<mask id="mask0" mask-type="alpha" maskUnits="userSpaceOnUse" x="2" y="4" width="10" height="6">
<path d="M10.9137 5.65832L7.41372 9.15832C7.29706 9.27499 7.18039 9.33332 7.00539 9.33332C6.83039 9.33332 6.71373 9.27499 6.59706 9.15832L3.09706 5.65832C2.86372 5.42499 2.86372 5.07499 3.09706 4.84166C3.33039 4.60832 3.68039 4.60832 3.91372 4.84166L7.00539 7.93332L10.0971 4.84166C10.3304 4.60832 10.6804 4.60832 10.9137 4.84166C11.1471 5.07499 11.1471 5.42499 10.9137 5.65832Z" fill="white"/>
</mask>
<g mask="url(#mask0)">
<rect x="0.00540161" width="14" height="14" fill="white"/>
</g>
</svg>
