<svg width="15" height="14" viewBox="0 0 15 14" fill="none" xmlns="http://www.w3.org/2000/svg">
<path d="M10.9137 9.15832C10.7971 9.27499 10.6804 9.33332 10.5054 9.33332C10.3304 9.33332 10.2137 9.27499 10.0971 9.15832L7.00539 6.06666L3.91372 9.15832C3.68039 9.39166 3.33039 9.39166 3.09706 9.15832C2.86372 8.92499 2.86372 8.57499 3.09706 8.34166L6.59706 4.84166C6.83039 4.60832 7.18039 4.60832 7.41372 4.84166L10.9137 8.34166C11.1471 8.57499 11.1471 8.92499 10.9137 9.15832Z" fill="white"/>
<mask id="mask0" mask-type="alpha" maskUnits="userSpaceOnUse" x="2" y="4" width="10" height="6">
<path d="M10.9137 9.15832C10.7971 9.27499 10.6804 9.33332 10.5054 9.33332C10.3304 9.33332 10.2137 9.27499 10.0971 9.15832L7.00539 6.06666L3.91372 9.15832C3.68039 9.39166 3.33039 9.39166 3.09706 9.15832C2.86372 8.92499 2.86372 8.57499 3.09706 8.34166L6.59706 4.84166C6.83039 4.60832 7.18039 4.60832 7.41372 4.84166L10.9137 8.34166C11.1471 8.57499 11.1471 8.92499 10.9137 9.15832Z" fill="white"/>
</mask>
<g mask="url(#mask0)">
<rect x="0.00540161" width="14" height="14" fill="white"/>
</g>
</svg>
